# xmcd
#
# Track frame offsets: 
#        150
#        12187
#        25750
#        40245
#        49687
#        64392
#        77220
#        90130
#        104240
#        119285
#        133275
#        149507
#        165590
#        176122
#        188025
#        202115
#        219075
#        231275
#        247155
#        257510
#        271347
#        286450
#        301542
#        314815
#        330047
#
# Disc length: 4657 seconds
#
# Revision: 2
# Processed by: cddbd v1.4PL0 Copyright (c) Steve Scherf et al.
# Submitted via: ExactAudioCopy v0.90b4
#
DISCID=6b122f19
DTITLE=George Strait - Hits
DYEAR=1900
DGENRE=Country
TTITLE0=Fool Hearted Memory
TTITLE1=A Fire I Can't Put Out
TTITLE2=You Look So Good In Love
TTITLE3=Right Or Wrong
TTITLE4=Does Fort Worth Ever Cross Your Mind
TTITLE5=The Chair
TTITLE6=Nobody In His Right Mind Would've Left Her
TTITLE7=Ocean Front Property
TTITLE8=All My Ex's Live In Texas
TTITLE9=Am I Blue
TTITLE10=Famous Last Words Of A Fool
TTITLE11=Baby Blue
TTITLE12=If You Ain't Lovin' (You Ain't Livin')
TTITLE13=Ace In The Hole
TTITLE14=Love Without End, Amen
TTITLE15=I've Come To Expect It From You
TTITLE16=If I Know Me
TTITLE17=I Cross My Heart
TTITLE18=Heartland
TTITLE19=Easy Come, Easy Go
TTITLE20=You Can't Make A Heart Love Somebody
TTITLE21=Check Yes Or No
TTITLE22=Blue Clear Sky
TTITLE23=Carried Away
TTITLE24=I Can Still Make Cheyenne
EXTD=
EXTT0=
EXTT1=
EXTT2=
EXTT3=
EXTT4=
EXTT5=
EXTT6=
EXTT7=
EXTT8=
EXTT9=
EXTT10=
EXTT11=
EXTT12=
EXTT13=
EXTT14=
EXTT15=
EXTT16=
EXTT17=
EXTT18=
EXTT19=
EXTT20=
EXTT21=
EXTT22=
EXTT23=
EXTT24=
PLAYORDER=
